<svg xmlns="http://www.w3.org/2000/svg" width="1085.03" height="809" viewBox="0 0 1085.03 809">
  <g id="Group_51720" data-name="Group 51720" transform="translate(-2860 9021)">
    <g id="Group_51719" data-name="Group 51719" transform="translate(21 41)">
      <path id="Path_213716" data-name="Path 213716" d="M1229.1,547.6c-30.1,10.2-43.5,42.3-29.8,71.4,5.6,12.1,20.4,23.8,33.9,27,5.5,1.2,19.1,1.2,24.6,0,13.5-3.2,28.3-14.9,33.9-27,14.4-30.6-1.5-64.5-34.2-73C1250,544.1,1237.2,544.8,1229.1,547.6Zm27.2,3.9a45.058,45.058,0,0,1,21.7,12.4c17.9,17.9,18.1,45.7.3,63.8-18.2,18.7-46.9,18.9-65.3.4-18.1-18.1-18.1-46.1,0-64.2C1224.6,552.3,1241.1,547.5,1256.3,551.5Z" transform="translate(2627 -9204)"/>
      <path id="Path_213717" data-name="Path 213717" d="M1228,595.9V625h11V613c0-12,0-12,2.4-12,4.2,0,7.2,3.6,11.6,14l4.3,10H1270l-1.3-2.8c-4.8-10.9-11-22.3-12.6-23.4-1.8-1.1-1.7-1.3,2-2.9,10.4-4.7,10.7-20.9.3-26.3-3.2-1.7-6.2-2.2-17.1-2.4l-13.3-.4Zm24.2-16.9c2.5,2.6,2.9,3.6,2.4,6.3a9.573,9.573,0,0,1-2.5,4.8c-2,1.7-10.6,3.3-12.2,2.3-1-.6-1.2-14.7-.2-15.7.3-.4,2.6-.7,5-.7C1248.3,576,1249.7,576.6,1252.2,579Z" transform="translate(2627 -9204)"/>
    </g>
    <path id="Path_213718" data-name="Path 213718" d="M1177.5,764.3c-7.4,3.4-11.6,12.5-9.6,21.1,1.5,6.6,4.3,10.1,9.6,12.2,8.6,3.2,18.1-.1,22.2-7.9,3.7-7.2,1.3-20.5-4.4-24.3C1191.8,763.2,1181.4,762.5,1177.5,764.3Z" transform="translate(2660 -9263)" fill="#d91c1c"/>
    <path id="Path_213719" data-name="Path 213719" d="M660.5,765.1c-8.1,1.2-19.5,6.9-23.9,12-6.8,8-9.6,17-9.6,31,0,4.3-.4,8-.9,8.3-.4.3-4.1,1-8.2,1.7-4.1.6-8,1.6-8.7,2.2-.9.7-1.2,3.3-1,8.6l.3,7.6,9,.5,9,.5v66l-7.5,2.4c-4.1,1.3-7.8,2.9-8.2,3.5-.9,1.3-1,10.2-.2,13.4l.6,2.2,32.2-.2,32.1-.3V908.7l-4.5-1.2c-2.5-.7-6.6-1.8-9.2-2.5l-4.8-1.3V837h24.7l.6-6.8c.4-3.7.7-8.2.7-10V817H657V807c0-17,3.5-21,18.4-21h8.4l1.1,3.2c.5,1.8,1.3,5.1,1.7,7.3s1.2,4.3,1.8,4.7c1.3.9,12.8,1,15,.2,1.4-.5,1.6-2.8,1.6-15.1V771.9l-4.5-2C691.5,765.9,671.2,763.5,660.5,765.1Z" transform="translate(2660 -9263)" fill="#d91c1c"/>
    <path id="Path_213720" data-name="Path 213720" d="M255.3,814.5c-11.8,3.2-19.3,9-23.5,18-1.8,4-2.3,6.7-2.3,14,0,10.3,1.4,14.1,7.6,20.5,4.6,4.8,10.2,7.7,23.7,12.4,17.9,6.2,21.2,8.6,21.2,15.3,0,8.2-7.3,12-20.6,10.9-11.6-.9-12.1-1.3-12.9-9.5l-.7-7.1h-8.9c-8.5,0-8.9.1-9,2.2-.3,6.5.1,29.9.5,30.6.7,1.2,12.2,3,26.6,4.2,21.5,1.7,37.1-2.3,46.8-12.2,6.5-6.5,8.6-11.8,9-22,.4-8,.2-9.1-2.4-13.9A35.816,35.816,0,0,0,297.1,865c-1.3-.7-7.4-3-13.5-5.2a160.526,160.526,0,0,1-16.3-6.5c-9.2-4.6-10.7-12.1-3.3-17.1,2.7-1.8,4.7-2.2,10.6-2.2,10.8,0,12,.7,13.6,8.2l1.4,6.3,9.2.3,9.2.3V818.2l-4.3-1C287.6,813.1,265.1,811.9,255.3,814.5Z" transform="translate(2660 -9263)" fill="#d91c1c"/>
    <path id="Path_213721" data-name="Path 213721" d="M437.4,814.6c-4.4.8-11.4,2.5-15.5,3.7l-7.4,2.3.4,14.5c.1,7.9.5,14.7.8,15.1.2.5,4.2.8,8.8.8h8.4l1.1-4.3c2.1-8.7,2.4-9.1,6.5-10.5,7.2-2.4,16-2.7,21.1-.7,6.7,2.5,8.4,5.9,8.4,16.6v8.6l-14.7.7c-21.7,1-30.8,3.5-39.2,11.2-7,6.3-10.2,17.9-8.1,29.4,2.5,13.9,9.8,21.4,23.2,23.9,10.7,1.9,25.3-2.6,36.1-11.1,4.5-3.6,4.9-3.3,6.8,4.4l1.1,4.8h10.7c6,0,14.9-.3,19.9-.6l9.2-.7V907.3l-7.2-1.9-7.3-1.9L500,871c-.5-28.1-.8-33.2-2.4-37.5-5.5-15.1-16.2-20.6-39.5-20.4A146.946,146.946,0,0,0,437.4,814.6ZM470,885.5v7.4l-5.2,4c-7.7,5.6-11.1,7.1-16.7,7.1-4.2,0-5.6-.5-8.3-2.9-3-2.7-3.3-3.4-3.3-8.9,0-10.6,5.7-13.8,24.8-14.1l8.7-.1Z" transform="translate(2660 -9263)" fill="#d91c1c"/>
    <path id="Path_213722" data-name="Path 213722" d="M808.8,814.6a149.291,149.291,0,0,0-15,3.7l-7.3,2.3-.3,3.9a141.942,141.942,0,0,0,.3,15.2l.7,11.3h17.6l1.7-6.9,1.7-6.9,4.6-1.3a53.018,53.018,0,0,1,12.4-1.4c6.2,0,8.2.4,10.5,2.1,4.5,3.3,6.3,7.9,6.3,16.5v7.6l-15.1.6c-21,1-31.5,3.9-39.2,11.2-5.7,5.4-8,10.8-8.5,20.1-1,18.7,7.3,30.2,24,33.3,10.6,1.9,22.7-1.7,35.1-10.6,2.7-1.9,5-3.3,5.2-3.1a34.77,34.77,0,0,1,1.7,5.8l1.4,5.5,8,.3c4.3.2,13.4,0,20.2-.3l12.2-.7V907.2l-7.5-1.7-7.5-1.8V875.6c0-30.7-.8-38.4-4.6-46.3-3.1-6.5-7.6-10.5-15.1-13.4-5-1.9-8-2.3-20.8-2.5C821.5,813.2,813.9,813.6,808.8,814.6ZM842,885.2c0,7.2-.1,7.3-3.9,10.5-9.4,7.8-18.9,10.3-25.1,6.6-3.5-2-5-5.2-5-10.3,0-10.2,6.3-13.7,25.3-13.9l8.7-.1Z" transform="translate(2660 -9263)" fill="#d91c1c"/>
    <path id="Path_213723" data-name="Path 213723" d="M1037,816.2a65.278,65.278,0,0,0-11.1,7.5c-2.6,2.4-4.9,4.3-5.2,4.3s-.9-2.1-1.2-4.8c-1.3-9.2.9-8.4-21.8-7.6-12.9.4-20.5,1.1-20.9,1.8-1.3,1.9-.9,13.3.5,14.3.6.6,3.7,1.6,6.7,2.3,9.9,2.3,9.1-1.4,8.8,36.3l-.3,33.2-7.7,2.4c-5.8,1.8-7.8,3-8.2,4.5-.8,2.8-.7,9.5,0,12.4l.6,2.2,32.2-.2,32.1-.3V908.7l-8.8-2.4a80.675,80.675,0,0,1-9.8-2.9c-.5-.3-.9-12.4-.9-27.4V849.2l4.3-3.7c4.7-4.2,10.7-7.2,15.2-7.7,2.8-.3,3,0,4.1,4.7.7,2.7,1.5,6.7,1.9,8.7l.6,3.8h16.7l.6-9.3c.3-5,.7-13.8.9-19.5l.4-10.2-5-1.5A51.876,51.876,0,0,0,1050,813C1044.4,813,1042.2,813.5,1037,816.2Z" transform="translate(2660 -9263)" fill="#d91c1c"/>
    <path id="Path_213724" data-name="Path 213724" d="M1168.8,815.7l-13.8.4v15.8l5.3,1.5c2.8.8,6.4,1.8,8,2.2l2.7.6v67.5l-7.7,2.5-7.8,2.4-.3,8.2-.3,8.2,29.8-.2,29.8-.3v-16l-6.7-2.4-6.8-2.5V815l-9.2.2C1186.7,815.3,1176.3,815.6,1168.8,815.7Z" transform="translate(2660 -9263)" fill="#d91c1c"/>
    <path id="Path_213725" data-name="Path 213725" d="M200,991.5V1051H1233V932H200Zm384.6-39.7c2.3,1.1,6.2,4.4,8.8,7.2,6.5,7.3,8.6,14.6,8.6,30,0,18.2-4.1,28.5-14.2,35.2-5.3,3.6-9.8,4.8-17.9,4.8-15,0-26.7-10.8-29.8-27.5-2.5-13.3-.8-27.9,4.3-37.1,3.4-6.2,10.3-12.3,16-14.2C565.6,948.4,579.9,949.3,584.6,951.8ZM297,954.5V959H259v24h33v9H259v27l19.3.2,19.2.3.3,4.2.3,4.3H248V950h49Zm27.3-3.3c.3.7,5.8,14.3,12.2,30.3,6.4,15.9,12,29.3,12.3,29.7.4.4,6.3-13.2,13.2-30.3L374.4,950H388v78H376.7l.6-29.8c.5-23.7.4-29.2-.6-27.2-.7,1.3-6.1,14.6-12.2,29.5l-11,27h-8.8l-11.4-28c-6.2-15.4-11.7-28.9-12.2-30-.6-1.2-.7,9.7-.3,28.2l.5,30.3H310V950h6.9C321.5,950,324,950.4,324.3,951.2Zm119.3.3c5.4,1.6,10.6,6.2,12.3,10.8,3,7.8.2,17.9-6,22.3l-2.9,2.1,3.7,2.4c10.2,6.6,11.4,24.1,2.1,32.5-5.8,5.4-8.1,5.9-28,6.2l-18.8.4V950h16.3C433.8,950,440.1,950.4,443.6,951.5Zm72,1.2c10.2,5.4,14.6,16.2,11.3,27.4a24.651,24.651,0,0,1-10.4,12.7l-3.2,1.7,8.8,16c4.9,8.8,8.9,16.4,8.9,16.8s-2.6.7-5.7.5l-5.7-.3-8.1-15-8-15-9.3-.3-9.2-.3V1028H474V949.8l18.8.4C509.8,950.5,511.9,950.7,515.6,952.7ZM629,989v39H618V950h11Zm53.7-36.9a33.162,33.162,0,0,1,19.2,20.4c2.9,9.2,2.9,23.8.1,32.8-2.6,8.4-9.6,16.4-17.2,19.8-4.7,2.1-7.1,2.4-21.5,2.7l-16.3.4V950h15C674.7,950,677.8,950.3,682.7,952.1Zm86.1,2.1-.3,4.3-19.2.3L730,959v24l16.8.2,16.7.3.3,4.2.3,4.3H730v27h39v9H719V950h50.1Zm51.1-2.6c9.6,2.8,15.1,10.9,15.1,22-.1,8.1-4.6,15.4-12.5,20-1.8,1-1.4,1.9,4.9,13.5,3.8,6.8,8,14.3,9.4,16.7l2.4,4.3-6.2-.3-6.2-.3-8.1-15.3L810.5,997H792v31H782V950h16.3C810.2,950,816.1,950.4,819.9,951.6ZM860.5,969c5.3,10.5,10,18.8,10.3,18.6.4-.3,5-8.8,10.2-19l9.5-18.6h12.6l-2.4,4.2c-1.4,2.4-7.5,13.4-13.6,24.5L876,998.9V1028H865V998.6l-13-23.7c-7.1-13-13-24-13-24.3s2.6-.6,5.9-.6h5.9Zm92.9,0c5.4,10.4,10.1,18.8,10.5,18.6.3-.3,4.9-8.8,10.1-19l9.5-18.6h12.6l-2.4,4.2c-1.4,2.4-7.5,13.4-13.6,24.5L969,998.9V1028H958V998.6L945,975c-7.1-13-13-24-13-24.3,0-.4,2.6-.7,5.8-.7h5.9Zm93.6,19.1c8,21,14.7,38.5,14.8,39,.2.5-2.1.9-5.1.9h-5.6l-2.1-5.8c-1.1-3.1-2.8-7.6-3.7-10l-1.6-4.2h-32.4l-3.5,9.7-3.5,9.8-5.6.3-5.6.3,2.3-6.3c9.1-24,26.9-70.4,27.3-71,.2-.5,2.5-.8,5.1-.8h4.7Zm63.1-36.5a20.638,20.638,0,0,1,9.6,5.9c9.4,9.9,7.4,27.1-4.2,34.4l-4.4,2.8,9,16.2c4.9,8.9,8.9,16.4,8.9,16.6,0,.3-2.6.5-5.7.5h-5.8l-8.1-15.3-8.1-15.2-9.1-.3-9.2-.3V1028h-11V950h16.3C1100.4,950,1106.1,950.4,1110.1,951.6Zm59.4,27.6,19,29.2.3-29.2.2-29.2h11v78h-10.8l-19.4-29.6-19.3-29.6-.3,29.6-.2,29.6h-10V950h10.5Z" transform="translate(2660 -9263)" fill="#d91c1c"/>
    <path id="Path_213726" data-name="Path 213726" d="M562,960.2c-8.3,4.2-12,13.2-12,28.8s3.7,24.5,12,28.8c9.4,4.8,21.5,1.1,25.8-8,4.2-8.6,5.1-24.6,2.1-36.3C586.5,960.6,573.5,954.4,562,960.2Z" transform="translate(2660 -9263)" fill="#d91c1c"/>
    <path id="Path_213727" data-name="Path 213727" d="M417,971v12h9c14.3,0,20-3.4,20-11.9,0-9.5-4-12.1-18.9-12.1H417Z" transform="translate(2660 -9263)" fill="#d91c1c"/>
    <path id="Path_213728" data-name="Path 213728" d="M417,1005.5V1019h10.6c15.9,0,20.9-3.4,20.6-14.2C448,994.6,444,992,428.3,992H417Z" transform="translate(2660 -9263)" fill="#d91c1c"/>
    <path id="Path_213729" data-name="Path 213729" d="M485,973.6v14.6l10.8-.4c12.1-.4,16.1-1.9,19.2-7.1,4.1-6.6,1.5-16.7-5-19.9-2.7-1.4-6-1.8-14.2-1.8H485Z" transform="translate(2660 -9263)" fill="#d91c1c"/>
    <path id="Path_213730" data-name="Path 213730" d="M658,989v30h8.8c7.4,0,9.6-.4,13.9-2.5,9-4.5,12.6-12.5,12.6-27.6-.1-12.1-2.1-18.7-7.4-24-4.6-4.6-8.9-5.9-19.6-5.9H658Z" transform="translate(2660 -9263)" fill="#d91c1c"/>
    <path id="Path_213731" data-name="Path 213731" d="M792,973.5V988h8.8c11.9-.1,16-1.2,20-5.4,2.8-3.1,3.2-4.3,3.2-8.8,0-6.6-2.7-11.4-7.5-13.4-2.2-.9-7.1-1.4-14-1.4H792Z" transform="translate(2660 -9263)" fill="#d91c1c"/>
    <path id="Path_213732" data-name="Path 213732" d="M1021.5,980.2c-3.2,9-6,16.9-6.3,17.5-.3,1,2.5,1.3,12.2,1.3,6.9,0,12.6-.3,12.6-.7,0-.7-11.9-33.6-12.4-34C1027.4,964.1,1024.7,971.3,1021.5,980.2Z" transform="translate(2660 -9263)" fill="#d91c1c"/>
    <path id="Path_213733" data-name="Path 213733" d="M1083,973.6v14.6l10.8-.4c11.6-.4,15.9-1.9,18.8-6.3,2.6-4,2.9-9.6.6-14.7-2.8-6.4-6.3-7.8-19.6-7.8H1083Z" transform="translate(2660 -9263)" fill="#d91c1c"/>
    <path id="Path_213704" data-name="Path 213704" d="M733.1,190c-3,3.8-7.7,9.6-10.4,12.7-7,8.3-7.4,9.4-4.6,13.2,1.7,2.4,2.3,4.5,2.3,8.4,0,9.1-5.7,14.5-14,13.2-7.6-1.1-12.6-9.3-11-18,.5-2.3.3-3.5-.4-3.5-1,0-7.5-2.6-17.5-7-7.1-3.1-11.9-5-12.6-5-.5,0-.9,6.8-.9,15,0,15,0,15.1,2.4,16,3.5,1.3,7.6,7.1,7.6,10.9,0,7.3-5.3,11.9-12.3,10.6-4.3-.8-7.2-3.7-8.9-9-1.1-3.4-1.8-4-5.3-4.7-2.2-.5-6.4-1.4-9.3-2-2.8-.6-5.5-.8-5.8-.5-.4.3,4.1,8.2,9.9,17.5,5.9,9.2,10.9,17.5,11.2,18.4.6,1.5-.2,1.6-6.8,1.1-9.2-.7-13.6.7-19.3,5.9-6.4,5.9-8.6,12.6-8.7,25.8a95.324,95.324,0,0,0,1.3,17.3l1.4,6.8-5,5.2c-2.8,2.8-8.6,9.2-12.9,14.2l-7.9,9,5.2.3c2.9.2,5.2.7,5.2,1.2s-1.8,3.3-4,6.2c-4.1,5.4-17.1,30.8-16.4,32,.2.3,2.2-.1,4.4-.9,2.2-.9,4.3-1.3,4.6-1,.4.3-.1,4.6-1,9.4a100.2,100.2,0,0,0-1.6,14.8c0,7.3,3.1,34.5,3.9,34.5a35.4,35.4,0,0,0,4.4-5c2.1-2.8,4.3-5,4.8-5s.9,4.2.9,9.2c.1,20.8,3.7,34.3,18.3,67.6,6,13.6,6.3,13.7,7.4,1.6.3-4.5,1-7.4,1.7-7.4s2.7,3,4.5,6.7c7.7,15.7,19.3,30.7,42.1,54.3,6,6.2,8,7.8,7.5,6-1-3.9-1.8-11-1.3-11,.3,0,6.3,5.8,13.3,13,11.9,12,15,14.1,13.9,9.1a4.23,4.23,0,0,1,.5-3.1c.8-1.1,1.8-.5,5.1,3.3,4.5,5.1,14.2,12.9,18.3,14.8,2.2,1,3.2.6,8.8-3.2a86.383,86.383,0,0,0,12.6-10.7l6.2-6.4.3,4.8.3,4.9,13.4-13.3c7.3-7.4,13.5-13.1,13.8-12.9.2.3,0,3.1-.6,6.3-.6,3.1-1,5.9-.8,6.1.2.1,4.2-3.9,8.9-9,23.6-25.5,32.6-37.2,39.8-51.5,2.3-4.5,4.6-8.2,5-8.2.5,0,1.2,2.1,1.5,4.7.3,2.7,1,6.8,1.4,9.3l.8,4.5,1.8-4c.9-2.2,2.6-6,3.7-8.5,13.5-29.7,16.3-39.2,18-61.3.7-8.6,1.5-15.7,1.8-15.7s2.3,2.2,4.5,5c2.6,3.3,4.2,4.5,4.6,3.7.4-.6,1.3-7.3,1.9-14.6,1.4-14.6.8-33.6-1-38.9-.7-1.8-1-3.6-.7-3.9s2.6.2,5.1,1c2.6.9,4.6,1.2,4.6.6,0-2.4-12.2-26.1-16.4-31.7a62.288,62.288,0,0,1-4.6-6.7c0-.3,2.3-.5,5-.5,2.8,0,5-.3,5-.8,0-.8-13.7-16.8-20.3-23.7-3.4-3.6-3.7-4.4-3.3-8,.3-2.2.9-9.4,1.2-16.1.5-9.6.3-13.1-1-17.6-2.1-7.2-7-13.7-12.6-16.7-4-2.1-5.4-2.3-12.7-1.8-4.6.3-8.3.2-8.3-.2,0-.3,5-8.7,11-18.5,6.1-9.9,10.8-18.1,10.5-18.4-.5-.5-7.8.9-15.7,2.9-3.1.8-3.8,1.5-5,5.1-1.7,5.5-5.7,8.3-11.5,8.3-3.7,0-4.9-.5-6.9-2.8-4.6-5.4-2.7-14,4.2-18.5L815,233V218.5c0-9.2-.4-14.5-1-14.5s-7.7,2.8-15.8,6.2l-14.8,6.2v6c.1,4.9-.4,6.8-2.2,9.4-5.8,8.1-15.5,8.3-20.9.3-3.1-4.6-3-10.2.3-15.8,1.6-2.9,2.2-4.8,1.6-5.6-4.6-6.1-22.7-27.7-23.1-27.7C738.8,183,736.1,186.2,733.1,190Zm9,53.7a74.431,74.431,0,0,1,.1,9.4c-.2,2.2-.8,2.8-3.2,3.1-5.6.8.3,5.6,5.3,1.6,2.8-2.2-4.4-14.3-7.3-12.6-2.3,1.4,8.281,7.263,9.181,4.963S742,241.4,742.1,243.7Zm-18.3,33.2c4.5,2.3,11.3,9.4,13.3,13.9.7,1.8,1.7,3.2,2,3.2.4,0,1.9-2,3.3-4.4,3.3-5.7,9.1-11.4,13.4-13.2,2.8-1.1,5.4-1.2,13.2-.5,8.8.8,10.3,1.3,16.8,5.2a107.721,107.721,0,0,1,15.4,12.1c4.6,4.3,8.4,7.8,8.5,7.8s2.1-1.8,4.4-3.9c14.5-13.4,27.8-14.5,33.8-2.8,2.1,4.2,2.4,6.1,2.4,15a121.14,121.14,0,0,1-1.7,18.1c-1.9,8.8-2.4,7.6,6.4,16.9,3,3.2,5.7,6.3,5.8,6.8.2.5-3.4.9-8.2.9-4.7,0-8.6.3-8.6.7,0,.5,2.3,2.1,5.1,3.8,6.1,3.6,17.2,14.2,21.7,20.7,3.6,5.3,4.2,8.4,1.5,7.3-8.4-3.4-9.6-3.1-6.4,1.4s7.6,14.8,9.1,21.5c1.6,6.9,2,24.8.5,25.2-1.7.6-7.2-7.8-9.5-14.6-7.2-20.8-19.1-39.2-35.9-55.6-7.1-6.9-9-9.3-9.5-12.3-.3-2-2.1-6.2-4-9.4-3.1-5.2-3.3-5.7-1.5-5.7a13.02,13.02,0,0,1,5,1.6c7.6,3.9,2.2-2.3-7.4-8.7a57.591,57.591,0,0,0-7.8-4.4c-3.6-1.2-1.9-2.5,2.4-1.9,4.6.7,17.2,3.7,20,4.9,3.2,1.3,1.7-1.3-2-3.6-21.9-13.1-34.3-17-54-17-6.7,0-12.5-.4-12.8-.9-.9-1.5,7.1-8.8,10.9-9.8a22.194,22.194,0,0,1,7.8-.5l4.3.4-3-2.5c-7.5-6.4-22-3.8-34.2,6-2.3,1.9-4.4,3.4-4.8,3.4a13.974,13.974,0,0,1-3.7-2.5,77.51,77.51,0,0,0-9.6-6.2c-6.1-3.5-7.4-3.8-14.2-3.8-5.7,0-8.3.5-10.7,2-4.4,2.6-4.1,3.9.7,3.2a16.291,16.291,0,0,1,14.5,4.9c6,5.9,5.3,6.4-9.7,6.4-7.2,0-14.5.4-16.2,1-1.7.5-5.8,1.7-9.1,2.6-7.1,2.1-16.5,6.4-25.8,11.9-6.3,3.8-8.8,6.4-4.9,5.2,10.4-3.2,15.5-4.5,20-5.1,6.3-.8,6.2.3-.3,3.4-4.9,2.4-15.5,10.6-15.5,12,0,.4,2.3,0,5-1.1,5.7-2.2,6.1-1.5,2.5,3.9a35.578,35.578,0,0,0-4.1,9c-1.3,4.4-3,6.7-10.8,14.5-15.9,15.9-24.9,29.5-33.2,50.4-4.5,11.5-9.7,19.9-11.5,18.7-2.5-1.5-.3-23.8,3.2-33.3,2.3-6.2,7.9-16.1,9.2-16.1.4,0,.5-.4.2-1-.4-.6-2.5-.2-5.5.9-2.8,1.1-5.2,1.5-5.5,1.1-.9-1.4,7.4-12.7,13.5-18.3a91.5,91.5,0,0,1,11.4-8.9c3.1-1.8,5.6-3.6,5.6-4s-4.1-.9-9-1l-9-.3,7.6-8.3c7.1-7.7,7.5-8.4,6.6-11-1.4-3.5-3.2-17-3.2-23.3,0-11.6,4.1-20,10.9-22,7.1-2.1,14.3.6,24.4,9.3l5.9,5.1,6.6-6.5c7.4-7.2,17.4-14.8,21.8-16.6a62.758,62.758,0,0,1,11.9-2c5-.5,9.4-1,9.8-1.1A21.564,21.564,0,0,1,723.8,276.9Zm5.6,44.7c10,9.1,10.3,9.1,18.9.9,3.1-3,6.3-5.5,6.9-5.5s5.9,2.4,11.7,5.4a191.532,191.532,0,0,0,18.6,8.2c15.4,5.3,23.3,13.5,25,25.9.4,2.8,2.9,10.7,5.6,17.8,2.7,7,4.9,14.3,4.9,16.1,0,4.1-3.4,7.2-8.9,8.2-8.2,1.4-15.9,3.7-21.5,6.5-3.2,1.6-6.2,2.6-6.7,2.3s-.9-.2-.9.1c0,.7,3.6,7.4,5.2,9.6,2.1,3-.5,5.6-8.2,8.2-.8.3-.3.6,1.2.6a20.514,20.514,0,0,0,6.9-1.5c3.5-1.4,4.2-1.5,5-.3,1.2,1.9,1.1,2.4-.8,4.8-1,1.1-4.3,2.7-7.3,3.5l-5.5,1.5h6.1c3.3.1,6.5-.4,7.1-1,1.8-1.8,4.3-.3,4.3,2.5,0,4.1-4.3,6.6-11.3,6.6-8,0-6.4,1.9,2.2,2.7,3.3.3,6.1.9,6.1,1.4,0,.4-1.5,1.9-3.2,3.2-10.7,7.9-27.2,5.9-41.4-5-2.9-2.1-3.3-3.1-3.6-7.6-.3-4.8.755-11.6-1.545-11.6l-3.755,6.4,20.706-18.6L740.5,409.5l-1.632,18.165c2.5,0-.268,3.928.632,4.528,1.2.6,13.8-21.093,14.7-21.993,2.8-2.8-16.8.916-16.8,5.616,0,1.1,20.363-2.265,20.863-2.565.6-.3,3.737.549,3.737-.751,0-3.2-24.3,18-22,20.1,1.7,1.5,26.645-19.808,28.078-21.543,1.7-2.3,3.577-5.361,1.177-7.261a3.4,3.4,0,0,0-4.655.4c-1.6,1.7-2.5,1.9-6,1.2a177.039,177.039,0,0,0-19.1-.8l-15-.1-.3,4.8-.3,4.7,2.5-2.5c2.8-2.8,6.2-3.2,9.1-1.1,1.6,1.1,1.8,2.8,1.9,11.2.1,9.5-.993-.8-3.093-.5-2,.3-1.307,11.6-1.307,15.4,0,3.7-.5,4.7-3.7,7.5-8.9,7.8-23.4,11.7-34,9.1-4.4-1.1-10.3-5.3-10.3-7.3,0-.4,1.2-.8,2.8-.8,4.5,0,10.2-1.2,10.2-2.1,0-.5-2.6-.9-5.8-.9-7.4,0-10.2-1.8-10.2-6.7,0-3.2.2-3.5,2.3-2.8a46.23,46.23,0,0,0,8.2,1.1l6,.4-5-1.4c-4.8-1.4-8.5-4.5-8.5-7.2,0-2.3,2.5-2.7,5.9-1a15.455,15.455,0,0,0,6.3,1.6l3.3-.1-3.8-1.3c-4.3-1.6-6.7-3.4-6.7-5.1,0-.6,1.3-3.6,3-6.6,3.3-6,3.7-7.8,1.5-5.9-1.1.9-2,.8-4.2-.8-3.6-2.5-13.9-5.9-21.7-7.2-4.9-.8-6.7-1.6-8.9-4.1-3.5-3.8-3.4-4.6,2.6-20.1a132.7,132.7,0,0,0,5.5-17.1c2.7-13.8,9.8-21.6,24.4-26.7a144.19,144.19,0,0,0,19.3-8.5c5.5-2.9,10.6-5.3,11.4-5.4C723.6,317.1,726.5,319.1,729.4,321.6Zm-92.9,79c-1.6,8.6-2.1,33.9-.6,34.8,1,.7,2.1-2.7,2.1-6.9a28.747,28.747,0,0,1,1.4-7.4l1.3-4.5.6,8.5c.9,12.8,2.9,18.7,13.2,39.4,5.3,10.4,9.5,19.6,9.5,20.4,0,1.6,1.7,7.4,3.2,10.6.5,1.3.7-1.7.3-8-.4-9.3-1.9-16.9-6-30.5-3.7-12.2-4.9-22-3.6-29.5,1.2-7.1,3.6-14.9,5.4-17.3a2.7,2.7,0,0,1,2.6-.8c.9.2,3.3.7,5.4,1.1,4.4.7,4.6,2.1,2,12.1l-1.8,6.5-4.8-.6-4.8-.7,1.9,3.4c1,1.8,4,7.3,6.7,12.3a118.737,118.737,0,0,0,6.3,10.8c1.4,1.5,1.3,2.4-.1,7.7-2.7,9.7-2.3,27,.9,39.4,2.8,10.6,9,26.8,11.8,30.7,2,2.9,2,1.7.2-6.9-3.4-16.6-4.6-31.1-2.7-34,1.2-1.9,2.7.4,3.5,5.5,1.5,9.8,8.3,21,22.7,37.3,4.4,5,10,11.9,12.5,15.3,5.2,7,12.4,21.3,12.4,24.5,0,3.5,1.8,2.5,3-1.6,2.5-9.4,12-24.2,24.1-37.7,9-10,15.5-18.7,18.4-24.4,3-6.1,5.5-13.5,5.5-16.9,0-1.4.6-2.2,1.6-2.2,1.5,0,1.6,1.4,1.1,12.7-.5,11.2-2.4,23.7-4.3,28.7-.3.9-.2,1.6.4,1.6.5,0,2-2.4,3.2-5.3,1.2-2.8,3-7,4-9.2,7.3-16.3,10.7-38.8,8-53.1a55.116,55.116,0,0,0-2-8.3c-.5-.9.5-3.4,2.4-6.5C807,446,816,429.3,816,428.4c0-.4-1.9-.3-4.3,0-4.3.7-4.4.7-5.5-3.1-2.5-8.1-3.3-12.6-2.5-13.4,1.1-1.1,10.5-2.9,11.5-2.3.4.3,2,4.3,3.4,8.9,3.6,11.5,3.1,23.2-1.5,39-5.3,17.9-8.6,38.5-6.2,38.5.6,0,1.3-1.2,1.6-2.8,1.6-7.3,6.3-18.9,12.5-30.7,9.1-17.2,12-26.3,12-37.1,0-8.9,1.4-11.2,2.5-4.2.3,2.4,1.2,7.2,1.8,10.8l1.1,6.5.9-8c.8-7.2-.2-26-1.9-36l-.5-3,3.5,4a161.457,161.457,0,0,1,13.8,19.6c5.2,8.4,6.4,50.9,1.9,67.4-2.6,9.6-5.1,16.5-6.1,16.5-.3,0-1.5-4.6-2.4-10.3-1-5.6-2.4-12.5-3.1-15.2-1.5-5.8-1.8-5.1-3.4,7.6-.6,4.1-1.7,10-2.4,13a36.6,36.6,0,0,0-.9,12.7l.9-11.383,1.025-.589c-2.8,0-7.925,19.872-12.525,28.372-7.1,13.1-22.3,34-23.8,32.5-.2-.2.4-4.9,1.5-10.3,1.8-9.4,2.5-13.8,2.2-15.8-.1-.5-1.5,1.8-3.2,5-9,17-31.2,45.4-33.5,43.1-.4-.4-1-6.9-1.3-14.4l-.7-13.8-2.3,7.5c-5.8,19-15.2,33.6-28.4,43.9-2.7,2.1-6.3-.1-14.1-8.8-7.9-8.8-13.5-19-18.1-32.7l-3.2-9.7-.7,13.4c-.3,7.3-1.1,13.8-1.6,14.3-2.5,2.5-24.1-25.6-34.4-44.9-2.1-3.9-3.5-5.9-3.3-4.5.3,1.4,1.1,5.4,1.8,9,.6,3.6,1.7,9.1,2.4,12.3.7,3.1.9,6,.5,6.2-1.8,1.1-17.3-20.2-23.5-32.2-4.6-8.6-5.2-9.3-8.7-9.3-3.241,0,2.079,7.743,3.487,4.315-.021.039-1.791-1.06-1.658-1.326a16.532,16.532,0,0,0,.381-1.655,6.084,6.084,0,0,0-.889-2.249c-.8-3.251-2.457-8.048-2.322-8.386.2-.4-.3-.7-1.2-.7-1.8,0,7.138,23.5,8.838,22.4.259-.13-1.3-5.228-3.267-11.381a154.739,154.739,0,0,1-5.571-17.342c-2.6-11.9-3.5-16.977-4.1-22.577-1.1-9.5-2.3-6.3-5.6,15.4-.6,3.8-1.5,7.4-2,7.9-1.1,1.2-3.3-4.1-6.1-14.3-3.7-13.9-3.6-51.9.2-65.2,1.5-5.4,17.3-27.9,18.6-26.6C637.8,392.5,637.3,396.2,636.5,400.6Zm108.7,51.5a72.644,72.644,0,0,1,11.8,4.1c8,3.7,17.6,6.8,21.2,6.8,6.6,0,6.2,16.6-.6,26.6l-2.5,3.7-1.3-3.3-1.4-3.3-3.8,5.1c-5.7,7.8-13.6,11.4-26.5,12-13.2.6-21.7-1.8-28.2-8a52.088,52.088,0,0,1-6.1-6.8l-1.6-2.5-1.4,3.4-1.4,3.5-2-3a30.278,30.278,0,0,1-5.4-16.9c0-8.8.7-9.8,8.5-11.3a70.772,70.772,0,0,0,13.3-4.2,105.655,105.655,0,0,1,11.5-4.6c2.9-.9,5.7-1.7,6.2-1.9C737.5,450.8,740,451,745.2,452.1Zm-19.9,61.3c2.7.6,5.2,1.8,5.7,2.6.4.8,2.3,5.9,4.1,11.3,1.8,5.3,3.8,9.6,4.3,9.4s2.5-4.8,4.5-10.3c2-5.4,3.9-10.4,4.4-11.1.4-.6,2.6-1.4,5-1.8a28.236,28.236,0,0,0,6-1.7c4.2-2.2,3.3,1.2-4.6,16.5-7.4,14.3-12.6,27.5-14.2,35.9-.6,3.2-2.5,3.8-2.5.8,0-7.2-7-24.5-18-44.5a61.567,61.567,0,0,1-3.5-7.4c-.7-2.2-.5-2.3,1.6-1.7C719.4,511.8,722.7,512.7,725.3,513.4Z" transform="translate(2637.427 -9204)" fill="#d91c1c"/>
    <path id="Path_213705" data-name="Path 213705" d="M737.4,251.1a2.09,2.09,0,0,0,.5,2.2c.8.8,1.1.5,1.1-1.1C739,249.8,738.5,249.4,737.4,251.1Z" transform="translate(2637.427 -9204)" fill="#d91c1c"/>
    <path id="Path_213706" data-name="Path 213706" d="M638.7,293.8c-2.3,2.5-2.1,3.5.4,2.2,3.4-1.9,6.4-.4,12.3,6.1,5,5.6,5.6,6,7.1,4.5a37.468,37.468,0,0,1,3.3-2.6c1.5-.9,1.3-1.4-2-4.3C652,292.7,642.2,290,638.7,293.8Z" transform="translate(2637.427 -9204)" fill="#d91c1c"/>
    <path id="Path_213707" data-name="Path 213707" d="M828.2,293.5c-4.8,2.1-12.2,7.6-12.2,9.1,0,1.7,6,5.9,6.9,4.8.4-.5,2.3-3,4.4-5.5,4.5-5.7,8.7-7.8,12.2-5.9a5.924,5.924,0,0,1,2.8,2.9c.4,1.3.5,1.3.6-.2a7.361,7.361,0,0,0-2.4-4.2C837.7,291.6,833.3,291.3,828.2,293.5Z" transform="translate(2637.427 -9204)" fill="#d91c1c"/>
    <path id="Path_213708" data-name="Path 213708" d="M686.3,355.9a67.414,67.414,0,0,0-7.9,4.5c-3.3,2.2-3.5,2.6-1.8,3.1a53.669,53.669,0,0,1,6.9,3.3c3.8,2.1,6.9,2.8,13,3.2,7.7.5,8.1.6,9.5,3.5,3.2,6.2,3.3,6.2,5-2.1,1-4.3,2.1-8.7,2.5-9.7.8-1.8-.9-2.4-2-.7s-4.3,1.1-6.2-1.3C700.6,353.7,694,352.4,686.3,355.9Z" transform="translate(2637.427 -9204)" fill="#d91c1c"/>
    <path id="Path_213709" data-name="Path 213709" d="M777.3,356a13.842,13.842,0,0,0-4.3,3.9,3.548,3.548,0,0,1-5.8.9c-2.1-2.1-2.4-.2-.8,5.3.8,3,1.7,7.1,2.1,9.1.3,2.1.9,3.8,1.3,3.8.4-.1,1.6-2,2.7-4.3l2-4.2,8-.5c6.3-.4,9-1.1,12.7-3.3,2.6-1.5,5.4-2.7,6.2-2.7,2.7,0,1.8-1.6-2.3-4.3C790.1,353.8,782.9,352.5,777.3,356Z" transform="translate(2637.427 -9204)" fill="#d91c1c"/>
    <path id="Path_213710" data-name="Path 213710" d="M710.1,403.9c-2.8,2.8,1.689,7.525,5.589,8.525,9.615,11.282,1.653.354,2.453,2.354,1.8,4.3,19.82,21.256,19.82,16.056,0-3.4-10.566-26.414-11.094-26.264-2.415.076-12.068.229-12.968-.871C712.3,401.7,712.3,401.7,710.1,403.9Z" transform="translate(2637.427 -9204)" fill="#d91c1c"/>
    <path id="Path_213711" data-name="Path 213711" d="M727.472,414.83c0,1,3.662,3.173,1,3.173-3.76,0-4.7.8-4.23,3.4.783,4.8,10,17.2,14.7,13.2,4.387-3.6.495-20.6-3.265-20.6C734.424,414,727.472,413.629,727.472,414.83Z" transform="translate(2637.427 -9209.73)" fill="#d91c1c"/>
    <path id="Path_213712" data-name="Path 213712" d="M745,421c0,3.8.4,7,.9,7,1.1,0,2.5-11.5,1.6-12.9C745.9,412.4,745,414.6,745,421Z" transform="translate(2637.427 -9204)" fill="#d91c1c"/>
    <path id="Path_213713" data-name="Path 213713" d="M752,416.5c0,1.5.6,2.5,1.4,2.5,1.9,0,2.8-1.4,2-3.4C754.4,413.1,752,413.7,752,416.5Z" transform="translate(2637.427 -9204)" fill="#d91c1c"/>
    <path id="Path_213714" data-name="Path 213714" d="M731.5,423a3.465,3.465,0,0,0,.4,2.7c.9,1.6,1,1.4,1.1-1C733,421.9,732.5,421.3,731.5,423Z" transform="translate(2637.427 -9204)" fill="#d91c1c"/>
    <path id="Path_213715" data-name="Path 213715" d="M638,509.9c0,1.2.5,2.1,1,2.1.6,0,1-.6,1-1.4a2.517,2.517,0,0,0-1-2.1C638.5,508.2,638,508.8,638,509.9Z" transform="translate(2637.427 -9204)" fill="#d91c1c"/>
    <path id="Path_213734" data-name="Path 213734" d="M549.636,389.193c-35.747,87.617-17.348,170.853,63.785,221.144,11.215,6.834,22.6,12.792,33.82,18.225,31.367,14.894,63.084,25.759,86.74,39.077,11.916,6.658,21.729,13.843,29.965,24.532l1.753-1.226c-8.412-11.04-18.575-18.225-30.666-25.059-23.832-13.317-55.549-24.357-86.916-39.077a330.135,330.135,0,0,1-33.644-18.049c-80.432-49.591-99.007-132.125-63.61-219.391Z" transform="translate(2639.317 -9206)" fill="#c7a64d"/>
    <g id="Group_51704" data-name="Group 51704" transform="translate(2639.317 -9206)">
      <path id="Path_213735" data-name="Path 213735" d="M676.33,605.781c3.154,2.1,8.236,5.433,13.668,9.813,17.523,14.72,18.049,24.708,15.946,33.47C693.853,639.6,677.907,635.921,676.33,605.781Z" fill="#c7a64d"/>
      <path id="Path_213736" data-name="Path 213736" d="M647.416,593.865c14.545,10.865,30.841,24.533,27.512,42.232-1.752-1.227-6.133-3.68-10.689-7.01s-9.288-7.535-11.741-11.916A48.207,48.207,0,0,1,647.416,593.865Z" fill="#c7a64d"/>
      <path id="Path_213737" data-name="Path 213737" d="M621.131,580.2c14.545,13.318,26.461,26.986,23.482,42.582C630.243,613.141,617.276,602.8,621.131,580.2Z" fill="#c7a64d"/>
      <path id="Path_213738" data-name="Path 213738" d="M598,563.55c13.317,16.647,20.327,30.666,17.348,43.458C599.753,595.267,591.342,581.6,598,563.55Z" fill="#c7a64d"/>
      <path id="Path_213739" data-name="Path 213739" d="M579.251,543.4c6.659,12.792,13.843,30.841,9.112,44.334C572.066,570.91,571.54,555.489,579.251,543.4Z" fill="#c7a64d"/>
      <path id="Path_213740" data-name="Path 213740" d="M565.758,519.391c3.68,13.493,6.834,32.068.175,44.51C556.12,549.006,552.966,531.833,565.758,519.391Z" fill="#c7a64d"/>
      <path id="Path_213741" data-name="Path 213741" d="M557.171,492.055c1.4,13.143.351,32.593-8.236,43.633C540.7,512.032,548.234,498.013,557.171,492.055Z" fill="#c7a64d"/>
      <path id="Path_213742" data-name="Path 213742" d="M554.368,462.966a100.3,100.3,0,0,1-1.577,11.741c-2.1,10.514-5.958,22.079-13.669,29.614C535.092,479.614,544.379,467.347,554.368,462.966Z" fill="#c7a64d"/>
      <path id="Path_213743" data-name="Path 213743" d="M556.646,433c-1.577,9.112-8.061,28.037-21.2,38.376C535.968,446.319,547.008,435.63,556.646,433Z" fill="#c7a64d"/>
      <path id="Path_213744" data-name="Path 213744" d="M563.83,403.212c-3.5,12.091-12.266,26.46-25.759,35.222C541.225,422.838,547.884,405.315,563.83,403.212Z" fill="#c7a64d"/>
      <path id="Path_213745" data-name="Path 213745" d="M575.045,373.948c-4.731,11.916-14.019,23.832-29.264,32.068C548.585,398.481,556.47,374.3,575.045,373.948Z" fill="#c7a64d"/>
    </g>
    <path id="Path_213746" data-name="Path 213746" d="M577.674,338.376c-4.031,12.441-14.194,39.778-25.409,46.612C551.389,372.722,558.048,354.673,577.674,338.376Z" transform="translate(2639.317 -9206)" fill="#c7a64d"/>
    <g id="Group_51705" data-name="Group 51705" transform="translate(2639.317 -9206)">
      <path id="Path_213747" data-name="Path 213747" d="M648.818,664.134a110.475,110.475,0,0,0,17.348,3.505c22.6,2.628,30.316-4.557,35.047-11.741-2.8-.526-19.977-5.783-30.491-3.154C663.362,654.5,656.178,658.526,648.818,664.134Z" fill="#c7a64d"/>
      <path id="Path_213748" data-name="Path 213748" d="M613.772,645.384c4.03,1.4,10.163,3.855,17.348,5.082,7.184,1.4,15.07,1.927,22.78,0,4.906-1.227,9.287-3.855,13.318-9.463-1.577-.35-6.484-1.752-12.267-2.979s-12.616-2.278-17.873-1.577C629.367,637.674,621.657,640.828,613.772,645.384Z" fill="#c7a64d"/>
      <path id="Path_213749" data-name="Path 213749" d="M579.251,621.9a111.154,111.154,0,0,0,16.822,7.885c21.554,7.535,31.192,1.753,37.149-4.731-3.154-.876-19.275-7.886-29.439-7.886C596.248,617.347,588.188,619.1,579.251,621.9Z" fill="#c7a64d"/>
      <path id="Path_213750" data-name="Path 213750" d="M548.585,591.412a86.7,86.7,0,0,0,14.895,11.566c19.1,11.565,30.315,8.236,37.675,2.628C587.311,599.648,582.405,590.01,548.585,591.412Z" fill="#c7a64d"/>
      <path id="Path_213751" data-name="Path 213751" d="M525.454,553.737c10.339,17.348,28.213,35.222,47.138,27.161C557.522,570.034,558.4,562.324,525.454,553.737Z" fill="#c7a64d"/>
      <path id="Path_213752" data-name="Path 213752" d="M512.662,512.382a87.684,87.684,0,0,0,6.659,16.647c10.164,18.925,21.2,22.43,30.841,21.379C539.122,536.564,542.627,529.38,512.662,512.382Z" fill="#c7a64d"/>
      <path id="Path_213753" data-name="Path 213753" d="M509.683,469.976c1.4,19.451,7.535,41.7,26.811,45.21C529.66,499.941,534.391,493.457,509.683,469.976Z" fill="#c7a64d"/>
      <path id="Path_213754" data-name="Path 213754" d="M515.291,428.8c-2.629,18.925-1.4,40.829,15.771,49.065C528.258,461.214,533.34,455.607,515.291,428.8Z" fill="#c7a64d"/>
      <path id="Path_213755" data-name="Path 213755" d="M527.907,390.07c-5.782,17.7-8.586,38.376,5.783,50.291C534.391,424.59,540.174,419.158,527.907,390.07Z" fill="#c7a64d"/>
      <path id="Path_213756" data-name="Path 213756" d="M545.781,354.147c-8.236,16.3-14.194,35.4-2.8,49.941C546.307,388.493,552.966,385.514,545.781,354.147Z" fill="#c7a64d"/>
    </g>
    <path id="Path_213757" data-name="Path 213757" d="M926.562,389.894c39.077,94.8,16.823,183.644-96.378,237.616-11.215,5.257-22.254,10.164-32.768,14.545-39.778,16.822-67.815,28.387-84.112,49.766l1.752,1.226c16.823-22.429,50.292-35.221,83.061-49.24,10.514-4.556,21.553-9.287,32.768-14.72,112.324-53.8,136.857-142.639,96.554-239.718Z" transform="translate(2639.317 -9206)" fill="#c7a64d"/>
    <g id="Group_51706" data-name="Group 51706" transform="translate(2639.317 -9206)">
      <path id="Path_213758" data-name="Path 213758" d="M827.556,664.835a131.65,131.65,0,0,1-17.173,3.5,55.824,55.824,0,0,1-22.079-1.4c-4.732-1.4-8.937-4.381-12.968-10.164,1.577-.175,6.484-1.752,12.442-2.8s12.792-1.752,18.049-.35C813.011,655.2,820.371,659.227,827.556,664.835Z" fill="#c7a64d"/>
      <path id="Path_213759" data-name="Path 213759" d="M858.747,648.012c-12.266,4.381-26.109,7.711-39.077,4.557A23.374,23.374,0,0,1,806,643.106c2.1-.526,7.009-1.928,12.617-2.979C828.432,638.2,840.523,636.447,858.747,648.012Z" fill="#c7a64d"/>
      <path id="Path_213760" data-name="Path 213760" d="M889.588,627.861c-16.822,8.937-40.479,15.42-53.1,1.226,3.5-1.226,12.792-4.556,20.5-5.958C867.859,621.027,879.95,623.48,889.588,627.861Z" fill="#c7a64d"/>
      <path id="Path_213761" data-name="Path 213761" d="M918.151,602.452c-14.544,11.916-37.85,21.729-52.044,10.163C876.095,607.884,894.845,596.669,918.151,602.452Z" fill="#c7a64d"/>
      <path id="Path_213762" data-name="Path 213762" d="M941.632,571.26c-11.215,14.9-32.067,29.264-48.189,21.028C902.03,586.155,919.553,571.085,941.632,571.26Z" fill="#c7a64d"/>
      <path id="Path_213763" data-name="Path 213763" d="M957.4,535.513c-6.483,16.472-23.656,35.047-40.829,31.717C923.233,559.52,937.6,539.894,957.4,535.513Z" fill="#c7a64d"/>
      <path id="Path_213764" data-name="Path 213764" d="M964.938,498.364c-1.927,12.967-12.792,37.324-31.366,39.252C938.128,528.153,947.415,506.249,964.938,498.364Z" fill="#c7a64d"/>
      <path id="Path_213765" data-name="Path 213765" d="M964.938,461.039c.877,16.472-6.308,37.85-21.553,44.159C945.488,496.261,949.868,471.378,964.938,461.039Z" fill="#c7a64d"/>
      <path id="Path_213766" data-name="Path 213766" d="M958.28,424.941c3.679,15.07,1.226,36.273-11.916,46.437C946.889,463.492,945.488,437.382,958.28,424.941Z" fill="#c7a64d"/>
      <path id="Path_213767" data-name="Path 213767" d="M946.539,391.121c5.783,12.792,7.36,33.119-3.33,46.787C941.808,427.219,936.2,404.263,946.539,391.121Z" fill="#c7a64d"/>
      <path id="Path_213768" data-name="Path 213768" d="M930.593,359.4c7.009,10.514,11.916,28.388,4.03,45.736C931.469,395.151,922.182,373.6,930.593,359.4Z" fill="#c7a64d"/>
    </g>
    <path id="Path_213769" data-name="Path 213769" d="M898.876,339.427c19.45,12.617,28.387,36.8,26.46,45.736C909.915,372.546,901.679,346.261,898.876,339.427Z" transform="translate(2639.317 -9206)" fill="#c7a64d"/>
    <g id="Group_51707" data-name="Group 51707" transform="translate(2639.317 -9206)">
      <path id="Path_213770" data-name="Path 213770" d="M803.023,605.08c-16.647,11.215-33.995,24.183-29.614,43.283C785.675,638.9,801.621,635.22,803.023,605.08Z" fill="#c7a64d"/>
      <path id="Path_213771" data-name="Path 213771" d="M834.916,591.237c-16.648,13.142-30.491,25.058-27.162,42.757,1.227-.876,5.608-3.505,10.339-7.009C828.432,619.449,835.441,611.564,834.916,591.237Z" fill="#c7a64d"/>
      <path id="Path_213772" data-name="Path 213772" d="M863.3,574.94c-14.194,14.9-25.759,26.636-21.9,43.633,1.227-1.051,5.257-3.68,9.638-7.359C860.324,603.153,866.457,594.216,863.3,574.94Z" fill="#c7a64d"/>
      <path id="Path_213773" data-name="Path 213773" d="M886.96,554.964c-12.091,19.451-18.925,30.315-14.019,45.035C880.827,591.412,897.123,581.424,886.96,554.964Z" fill="#c7a64d"/>
      <path id="Path_213774" data-name="Path 213774" d="M904.833,530.606c-7.885,23.306-10.338,33.47-3.855,46.087a27.1,27.1,0,0,1,2.454-3.505c1.051-1.752,2.628-3.68,3.855-6.133C913.42,556.015,914.647,545.326,904.833,530.606Z" fill="#c7a64d"/>
      <path id="Path_213775" data-name="Path 213775" d="M916.048,501.693c-1.051,12.091-4.2,29.79,3.855,42.056a24.018,24.018,0,0,0,2.629,3.68c.526-1.753,7.535-15.946,4.907-26.636C925.861,514.135,921.831,507.651,916.048,501.693Z" fill="#c7a64d"/>
      <path id="Path_213776" data-name="Path 213776" d="M920.78,470.151c1.927,20.678,3.5,33.645,15.42,43.633a39.2,39.2,0,0,1,.7-4.03,17.382,17.382,0,0,0,.351-3.154c0-.526.175-1.227.175-1.753a7.193,7.193,0,0,1,.175-1.927c.35-5.257-.175-11.391-2.278-15.771C932.52,480.665,927.439,475.058,920.78,470.151Z" fill="#c7a64d"/>
      <path id="Path_213777" data-name="Path 213777" d="M918.677,437.558c1.226,4.731,5.607,23.13,13.668,32.593a33.875,33.875,0,0,0,2.453,2.629,32.708,32.708,0,0,0,7.01,4.906C940.581,466.822,943.385,450.35,918.677,437.558Z" fill="#c7a64d"/>
      <path id="Path_213778" data-name="Path 213778" d="M910.791,404.789c7.535,17,13.669,30.491,28.914,36.449C936.551,430.373,936.726,414.777,910.791,404.789Z" fill="#c7a64d"/>
      <path id="Path_213779" data-name="Path 213779" d="M897.824,372.9c9.813,16.822,17.7,28.563,33.294,32.593C926.212,394.45,923.759,380.081,897.824,372.9Z" fill="#c7a64d"/>
    </g>
  </g>
</svg>
